# xmcd CD database file
#
# Track frame offsets:
#	150
#	19117
#	38572
#	59795
#	75337
#	91840
#	113515
#	127022
#	140147
#	157940
#	169670
#	190955
#
# Disc length: 2692 seconds
#
# Revision: 8
# Processed by: cddbd v1.5.2PL0 Copyright (c) Steve Scherf et al.
# Submitted via: CDex 1.70beta2
#
DISCID=950a820c
DTITLE=Holly Cole Trio - Don't Smoke In Bed
DYEAR=1993
DGENRE=Jazz
TTITLE0=I Can See Clearly Now
TTITLE1=Don't Let The Teardrops Rust Your Shining Heart
TTITLE2=Get Out Of Town
TTITLE3=So And So
TTITLE4=The Tennessee Waltz
TTITLE5=Everyday Will Be Like A Holiday
TTITLE6=Blame It On My Youth
TTITLE7=Everything I've Got
TTITLE8=Je Ne T'Aime Pas
TTITLE9=Cry (If You Want To)
TTITLE10=Que Sera Sera
TTITLE11=Don't Smoke In Bed
EXTD=Aaron Davis, Piano\nHolly Cole, Voice\nDavid Piltch, Bass and Percussion\nNumerous guest artists YEAR: 1993
EXTT0=
EXTT1=
EXTT2=
EXTT3=
EXTT4=
EXTT5=
EXTT6=
EXTT7=
EXTT8=
EXTT9=
EXTT10=
EXTT11=
PLAYORDER=
